<?xml version="1.0" encoding="iso-8859-1"?>
<!-- Generator: Adobe Illustrator 19.0.0, SVG Export Plug-In . SVG Version: 6.00 Build 0)  -->
<svg version="1.1" id="Capa_1" xmlns="http://www.w3.org/2000/svg" xmlns:xlink="http://www.w3.org/1999/xlink" x="0px" y="0px"
	 viewBox="0 0 512 512" style="enable-background:new 0 0 512 512;" xml:space="preserve">
<path style="fill:#FFE269;" d="M233.074,199.464l-24.798-100.05c-2.081-8.396-6.711-15.943-13.254-21.602l-60.398-52.236
	c-2.427-2.098-5.526-3.253-8.734-3.253h-11.096c-8.339,0-14.638,7.559-13.134,15.761l6.348,34.628
	c1.065,5.807-1.81,11.623-7.069,14.304l-79.904,40.735c-8.302,4.233-13.528,12.764-13.528,22.083v16.281
	c0,10.081,6.106,19.158,15.444,22.958l67.582,27.504c1.983,0.808,3.357,2.646,3.569,4.777l25.496,255.901
	c0.702,7.051,6.635,12.422,13.722,12.422h33.367c7.016,0,12.914-5.268,13.702-12.241l10.27-90.854
	c0.788-6.971,6.685-12.241,13.702-12.241h115.876c6.971,0,12.846,5.203,13.688,12.123l11.089,91.089
	c0.843,6.92,6.717,12.123,13.688,12.123h35.153c7.222,0,13.22-5.572,13.752-12.775l6.339-85.93
	c1.163-15.762,1.745-31.561,1.745-47.365V234.4c-1.702-17.335-16.278-30.55-33.696-30.55H238.679
	C236.026,203.85,233.713,202.041,233.074,199.464z"/>
<path style="fill:#F7D443;" d="M415.69,234.398c0,20.147,0,40.294,0,60.441c0,20.233,0.075,40.454-0.11,60.625
	c-0.189,20.624-2.089,41.542-3.594,61.976c-1.032,14.011-2.064,28.022-3.096,42.031c-0.428,5.81-0.857,11.619-1.284,17.428
	c-0.53,7.204-6.534,12.778-13.759,12.778h-35.152c-0.23,0-0.47-0.01-0.7-0.02c6.904-0.36,12.518-5.794,13.028-12.758l5.573-75.507
	l0.77-10.417c1.161-15.76,1.741-31.56,1.741-47.37V234.397c-1.701-17.331-16.28-30.549-33.691-30.549h36.573
	c1.621,0,3.222,0.11,4.783,0.34c1.041,0.14,2.071,0.34,3.092,0.58c0.51,0.12,1.011,0.26,1.501,0.4c0.45,0.13,0.901,0.27,1.341,0.42
	c0.54,0.17,1.071,0.36,1.591,0.57c0.46,0.18,0.911,0.37,1.361,0.57c0.04,0.01,0.09,0.03,0.13,0.05
	c0.911,0.41,1.801,0.851,2.672,1.341c0.44,0.24,0.881,0.5,1.311,0.77c0.39,0.24,0.78,0.49,1.161,0.75
	c2.141,1.441,4.103,3.132,5.864,5.023c0.27,0.28,0.52,0.57,0.77,0.861c0.58,0.66,1.131,1.341,1.641,2.051
	c0.2,0.26,0.39,0.51,0.57,0.78c0.29,0.42,0.58,0.841,0.851,1.281c0.27,0.43,0.54,0.871,0.791,1.321c0.22,0.38,0.44,0.77,0.64,1.171
	c0.17,0.32,0.33,0.65,0.48,0.981c0.15,0.28,0.28,0.57,0.4,0.871c0.18,0.38,0.34,0.76,0.5,1.151c0.25,0.64,0.49,1.301,0.71,1.971
	c0.11,0.31,0.2,0.61,0.3,0.931c0.04,0.15,0.09,0.31,0.12,0.47c0.11,0.35,0.2,0.7,0.29,1.051c0.04,0.18,0.08,0.35,0.12,0.53
	c0.08,0.34,0.16,0.68,0.22,1.021c0.04,0.17,0.07,0.34,0.09,0.52c0.08,0.36,0.14,0.72,0.19,1.081c0.03,0.18,0.05,0.36,0.07,0.54
	c0.05,0.31,0.09,0.62,0.11,0.941C415.68,234.258,415.68,234.328,415.69,234.398z"/>
<path style="fill:#00DDC2;" d="M415.687,234.4c0,0,59.712-4.312,88.349,63.621c1.201,2.849-0.107,6.141-2.912,7.442l-41.206,19.107
	c-3.495,1.621-7.563-0.563-8.138-4.373c-2.26-14.96-10.075-47.813-36.094-64.195V234.4z"/>
<path style="fill:#31A1F4;" d="M489.949,219.623c-16.275-1.898-53.307-3.747-74.263,14.779c-0.924-9.437-5.66-17.649-12.601-23.169
	c0,0,24.327-41.306,80.079-38.765c2.611,0.119,4.815,2,5.368,4.555l7.713,35.641C497.081,216.529,493.877,220.081,489.949,219.623z"
	/>
<path style="fill:#00BCA1;" d="M473.566,318.241l-13.649,6.324c-3.492,1.621-7.565-0.56-8.135-4.363
	c-2.261-14.969-10.076-47.82-36.093-64.2v-21.604c0,0,4.363-0.32,11.297,0.57v0.941c31.47,19.812,40.916,59.547,43.647,77.649
	C470.944,315.569,472.055,317.2,473.566,318.241z"/>
<path style="fill:#0781E5;" d="M489.946,219.619c-16.27-1.891-53.303-3.742-74.256,14.779c-0.72-7.265-3.682-13.799-8.195-18.942
	c25.556-19.032,66.732-16.911,85.313-14.749c0.29,0.03,0.58,0.05,0.861,0.05l2.572,11.907
	C497.081,216.527,493.879,220.079,489.946,219.619z"/>
<path style="fill:#A06047;" d="M73.303,178.569l-8.375,27.587l-41.976-17.081c-9.336-3.802-15.45-12.878-15.45-22.964v-16.28
	c0-9.316,5.233-17.851,13.528-22.084l17.731-9.036l22.154,18.452C72.993,147.22,77.876,163.53,73.303,178.569z"/>
<path style="fill:#00DDC2;" d="M415.687,338.279v5.333c0,15.8-0.58,31.6-1.741,47.36l-1.551,20.953l-6.494,3.022l-30.159-14.009
	l-30.159,14.009l-8.685-4.033l-2.972-24.445c-0.851-6.924-6.724-12.128-13.689-12.128H204.355c-7.014,0-12.908,5.273-13.699,12.238
	l-1.941,17.201l-24.045,11.167l-30.149-14.009l-21.533,10.006l-6.874-68.933l28.408-13.198l30.149,14.009l30.149-14.009
	l30.159,14.009l30.149-14.009l30.149,14.009l30.159-14.009l30.149,14.009l30.159-14.009l30.159,14.009L415.687,338.279z"/>
<polygon style="fill:#31A1F4;" points="415.687,272.668 415.687,338.279 405.901,342.822 375.742,328.813 345.583,342.822 
	315.434,328.813 285.275,342.822 255.126,328.813 224.978,342.822 194.819,328.813 164.67,342.822 134.521,328.813 106.113,342.011 
	99.429,274.919 104.362,277.211 134.521,263.202 164.67,277.211 194.819,263.202 224.978,277.211 255.126,263.202 285.275,277.211 
	315.434,263.202 345.583,277.211 375.742,263.202 405.901,277.211 "/>
<g>
	<path style="fill:#E84661;" d="M415.687,234.702v34.773c0,1.947-1.13,3.718-2.897,4.538l-4.782,2.22
		c-1.336,0.62-2.878,0.62-4.215,0l-25.944-12.051c-1.337-0.62-2.879-0.62-4.216,0l-25.943,12.051c-1.337,0.621-2.879,0.62-4.216,0
		l-25.933-12.05c-1.337-0.621-2.879-0.621-4.216,0l-25.943,12.051c-1.337,0.621-2.879,0.62-4.216,0l-25.932-12.05
		c-1.337-0.621-2.88-0.621-4.217,0l-25.933,12.05c-1.337,0.621-2.879,0.621-4.216,0l-25.942-12.051c-1.337-0.621-2.879-0.62-4.216,0
		l-25.932,12.05c-1.337,0.621-2.88,0.621-4.217,0l-25.932-12.05c-1.337-0.621-2.879-0.621-4.216,0l-25.943,12.051
		c-1.337,0.62-2.879,0.62-4.216,0l-0.237-0.11c-1.604-0.745-2.696-2.282-2.871-4.043l-4.297-43.189
		c-0.191-1.925,0.743-3.787,2.402-4.784l22.707-13.645c1.242-0.746,2.746-0.918,4.124-0.469l27.771,9.027
		c1.378,0.448,2.883,0.276,4.125-0.47l25.028-15.049c1.242-0.746,2.747-0.919,4.125-0.47l27.781,9.027
		c1.378,0.448,2.883,0.276,4.125-0.471l13.917-8.37c1.55-0.932,3.443-0.868,5.044-0.027c0.805,0.423,1.718,0.658,2.68,0.658h143.31
		c17.321,0,31.833,13.067,33.671,30.262C415.678,234.305,415.687,234.504,415.687,234.702z"/>
	<path style="fill:#E84661;" d="M175.016,60.505l-0.52,0.78l-21.463-7.595l-12.568,18.972l-21.453-7.595L106.454,84.03l-1.251-0.44
		c2.432-2.972,3.532-6.924,2.802-10.877l-6.344-34.632c-1.501-8.195,4.793-15.76,13.128-15.76h11.097
		c3.212,0,6.314,1.161,8.735,3.252L175.016,60.505z"/>
</g>
<circle cx="117.503" cy="123.647" r="7.666"/>
<polygon style="fill:#0781E5;" points="415.69,272.672 415.69,338.283 410.937,340.484 407.335,342.155 405.904,342.826 
	404.463,342.155 379.107,330.378 379.107,264.767 403.792,276.234 405.904,277.215 408.005,276.234 412.788,274.013 "/>
<path style="fill:#00BCA1;" d="M415.69,338.283c-3.101,1.437-6.161,2.854-9.266,4.293c-0.911,0.42-1.051,0-1.961-0.42
	l-25.356-11.777v13.228c0,15.81-0.58,31.61-1.741,47.37l-0.77,10.417c0.2,0.05,0.39,0.12,0.58,0.21l27.287,12.678l1.438,0.667
	c0,0,1.431-0.665,1.434-0.667l3.252-1.511c0.011-0.005,0.02-0.012,0.031-0.017l1.777-0.827c0,0,0.209-2.878,0.209-2.882
	c1.587-21.824,2.941-43.61,3.086-65.438c0-0.045-0.007-0.088-0.009-0.132L415.69,338.283z"/>
<path style="fill:#CE1D4C;" d="M415.401,234.729c-1.439-12.091-8.21-22.296-19.615-27.949c-0.04-0.02-0.088-0.039-0.128-0.049
	c-0.45-0.2-0.901-0.39-1.361-0.57c-0.52-0.21-1.051-0.4-1.591-0.57c-3.616-1.139-6.882-1.741-10.716-1.741
	c-0.001,0-36.574,0-36.574,0c17.411,0,31.99,13.218,33.691,30.549v30.369l26.797,12.448l9.786-4.543c0,0,0-23.793,0-32.998
	C415.69,237.996,415.593,236.345,415.401,234.729z"/>
<path d="M510.951,295.106c-15.799-37.477-40.826-54.041-59.038-61.336c-4.166-1.669-8.167-2.937-11.9-3.905
	c17.984-5.367,38.869-3.976,49.068-2.787c4.235,0.489,8.482-1.099,11.352-4.26c2.876-3.169,4.053-7.557,3.148-11.741l-7.713-35.642
	c-1.274-5.887-6.358-10.19-12.362-10.465c-1.812-0.083-3.586-0.123-5.335-0.123c-43.031,0-67.555,24.242-77.016,36.167
	c-5.737-2.986-12.256-4.669-19.164-4.669H240.033l-8.854-35.716c-0.997-4.025-5.066-6.477-9.09-5.479
	c-4.024,0.998-6.476,5.067-5.478,9.09l8.378,33.804l-10.845,6.522l-26.697-8.674c-3.447-1.119-7.204-0.689-10.31,1.177
	l-24.05,14.462l-26.688-8.674c-3.443-1.12-7.202-0.691-10.307,1.175l-16.937,10.176c-1.433-2.006-3.42-3.612-5.798-4.58
	l-19.262-7.839l6.386-21.035c5.463-17.966-0.333-37.339-14.765-49.356L52.311,120.23l52.036-26.528
	c1.281-0.652,2.46-1.442,3.552-2.322c1.919-0.378,3.673-1.488,4.811-3.206l9.322-14.076l12.244,4.335
	c5.423,1.92,11.425-0.088,14.603-4.882l7.174-10.83l15.939,5.64c0.296,0.105,0.597,0.169,0.899,0.235l17.222,14.894
	c5.399,4.67,9.162,10.801,10.88,17.73l4.406,17.776c0.997,4.024,5.064,6.471,9.09,5.479c4.024-0.998,6.476-5.067,5.478-9.09
	L215.56,97.61c-2.468-9.955-7.872-18.763-15.629-25.472l-19.927-17.235c-0.027-0.024-0.05-0.05-0.077-0.073l-40.399-34.936
	c-3.791-3.274-8.635-5.077-13.642-5.077h-11.097c-6.206,0-12.045,2.734-16.019,7.502c-2.732,3.278-4.36,7.251-4.746,11.398
	c-0.177,1.887-0.097,3.811,0.253,5.722l4.148,22.622l2.201,12.015c0.002,0.01,0.002,0.02,0.004,0.03
	c0.048,0.275,0.073,0.55,0.082,0.825c0.002,0.055,0.003,0.109,0.003,0.164c0.004,2.169-1.209,4.231-3.184,5.237l-62.123,31.671
	c-0.053,0.026-0.105,0.053-0.157,0.08l-17.624,8.985C6.753,126.61,0,137.633,0,149.835v16.281c0,13.195,7.898,24.935,20.119,29.91
	l66.617,27.111l5.201,52.207c0.007,0.113,0.022,0.224,0.034,0.337l6.673,66.977c0.003,0.034-0.001,0.067,0.002,0.1l6.874,68.933
	c0.001,0.007,0.003,0.013,0.003,0.02l1.683,16.897c0.386,3.871,3.648,6.761,7.459,6.761c0.248,0,0.5-0.012,0.752-0.038
	c4.125-0.411,7.135-4.087,6.724-8.212l-1.157-11.613l13.536-6.29l26.987,12.54c2.005,0.932,4.318,0.932,6.323,0l11.922-5.536
	l-6.825,60.377c-0.359,3.18-3.045,5.579-6.245,5.579h-33.367c-3.243,0-5.933-2.434-6.254-5.661l-0.237-2.385
	c-0.409-4.124-4.068-7.138-8.211-6.724c-4.124,0.41-7.134,4.087-6.724,8.211l0.237,2.387c1.09,10.936,10.198,19.182,21.189,19.182
	h33.367c10.844,0,19.94-8.126,21.159-18.902l8.319-73.596c0.002-0.021,0.009-0.041,0.011-0.062l1.94-17.197
	c0.135-1.192,0.597-2.274,1.29-3.162c1.156-1.479,2.955-2.416,4.954-2.416h115.876c3.173,0,5.856,2.375,6.238,5.524l11.089,91.088
	c1.3,10.673,10.387,18.721,21.138,18.721h35.153c11.092,0,20.42-8.665,21.236-19.727l5.357-72.616l0.986-13.315
	c1.169-15.873,1.761-31.992,1.761-47.91v-0.003v-5.33v-66.195c14.624,16.124,19.597,38.833,21.168,49.234
	c0.63,4.173,3.123,7.712,6.839,9.71c1.976,1.063,4.125,1.596,6.279,1.596c1.898,0,3.803-0.414,5.597-1.246l41.207-19.107
	C510.803,309.247,513.733,301.707,510.951,295.106z M144.618,52.804l-7.173,10.83l-12.246-4.336c-1.376-0.486-2.789-0.72-4.184-0.72
	c-2.709,0-5.348,0.883-7.511,2.512l-4.464-24.366c-0.107-0.584-0.123-1.126-0.076-1.623c0.142-1.493,0.846-2.577,1.336-3.166
	c0.654-0.786,2.108-2.104,4.492-2.104h11.097c1.404,0,2.763,0.505,3.824,1.425l19.881,17.195
	C147.627,49.402,145.894,50.877,144.618,52.804z M15.009,166.116v-16.281c0-6.53,3.614-12.43,9.433-15.397l13.321-6.791
	l18.35,15.284c9.783,8.146,13.713,21.278,10.008,33.459l-5.986,19.716l-34.359-13.983C19.236,179.461,15.009,173.178,15.009,166.116
	z M405.901,334.548l-26.998-12.541c-2.003-0.932-4.319-0.932-6.322,0l-26.996,12.54l-26.988-12.54c-2.005-0.932-4.32-0.931-6.323,0
	l-26.997,12.54l-26.988-12.54c-2.005-0.932-4.319-0.932-6.324,0l-26.988,12.54l-26.996-12.54c-2.003-0.932-4.318-0.931-6.323,0
	l-26.987,12.54l-26.987-12.54c-2.005-0.932-4.319-0.932-6.324,0l-18.819,8.743l-4.672-46.893l26.652-12.379l26.988,12.54
	c2.005,0.932,4.319,0.932,6.324,0l26.988-12.54l26.996,12.54c2.003,0.933,4.318,0.932,6.323,0l26.987-12.54l26.987,12.54
	c1.003,0.465,2.082,0.698,3.162,0.698s2.159-0.233,3.161-0.698l26.997-12.54l26.988,12.54c2.005,0.932,4.32,0.932,6.323,0
	l26.997-12.54l26.998,12.541c1.718,0.797,3.66,0.907,5.441,0.338v49.134L405.901,334.548z M481.479,179.912l6.922,31.989
	c-34.294-3.588-55.614,3.037-68.111,10.122c-0.069-0.17-0.147-0.336-0.218-0.505c-1.753-4.155-4.156-7.943-7.078-11.249
	C420.925,200.377,442.839,178.648,481.479,179.912z M122.848,217.484l26.686,8.673c3.447,1.122,7.206,0.692,10.313-1.176
	l24.051-14.462l26.696,8.673c3.444,1.12,7.206,0.691,10.311-1.177l12.737-7.661c1.564,0.64,3.265,0.999,5.039,0.999h143.312
	c5.995,0,11.532,1.983,15.971,5.356c0.145,0.136,0.294,0.269,0.452,0.395c12.38,9.847,9.768,24.833,9.768,38.895v11.877
	l-2.279,1.059l-26.999-12.541c-2.005-0.932-4.319-0.931-6.322,0l-26.997,12.54l-26.987-12.54c-2.005-0.932-4.32-0.931-6.323,0
	l-26.997,12.54l-26.988-12.54c-2.005-0.932-4.319-0.932-6.324,0l-26.988,12.54l-26.996-12.54c-2.003-0.933-4.318-0.932-6.323,0
	l-26.987,12.54l-26.988-12.54c-2.005-0.932-4.32-0.932-6.323,0l-25.067,11.643l-3.817-38.316L122.848,217.484z M164.671,406.673
	l-26.988-12.54c-2.005-0.932-4.319-0.932-6.324,0l-11.95,5.553l-5.292-53.117l20.405-9.48l26.987,12.54
	c2.005,0.932,4.319,0.932,6.324,0l26.988-12.54l26.996,12.54c2.003,0.933,4.318,0.932,6.323,0l26.987-12.54l26.987,12.54
	c2.005,0.932,4.32,0.931,6.323,0l26.997-12.54l26.988,12.54c2.005,0.932,4.32,0.932,6.323,0l26.997-12.54l26.997,12.54
	c1.698,0.789,3.616,0.91,5.383,0.361c-0.01,1.024-0.013,2.044-0.029,3.069c-0.021,1.427-0.046,2.855-0.077,4.284
	c-0.051,2.362-0.119,4.727-0.196,7.09c-0.043,1.307-0.082,2.614-0.133,3.92c-0.106,2.717-0.234,5.43-0.374,8.142
	c-0.048,0.939-0.087,1.879-0.14,2.817c-0.208,3.713-0.443,7.42-0.715,11.111l-0.942,12.764l-0.237,3.198L378.9,394.134
	c-2.003-0.932-4.319-0.932-6.322,0l-26.998,12.541l-1.738-0.807l-2.47-20.311c-0.217-1.765-0.664-3.45-1.28-5.047
	c-1.747-4.545-4.983-8.307-9.093-10.726c-3.175-1.869-6.857-2.945-10.765-2.945h-115.88c-6.774,0-12.867,3.174-16.782,8.185
	c-1.923,2.461-3.313,5.366-4.008,8.554c-0.013,0.059-0.032,0.114-0.045,0.173c-0.047,0.223-0.07,0.454-0.109,0.68
	c-0.076,0.433-0.16,0.865-0.21,1.307l-0.258,2.29l-1.212,10.723L164.671,406.673z M393.851,482.173h-35.153
	c-3.173,0-5.856-2.375-6.238-5.524l-6.599-54.212c0.987-0.037,1.968-0.258,2.884-0.682l26.997-12.541l26.997,12.541
	c0.444,0.206,0.906,0.359,1.373,0.474l-3.992,54.123C399.878,479.615,397.125,482.173,393.851,482.173z M458.836,316.8
	c-2.6-15.279-10.822-46.873-35.644-64.783v-9.908c15.381,1.385,52.51,9.763,73.253,57.253L458.836,316.8z"/>
<g>
</g>
<g>
</g>
<g>
</g>
<g>
</g>
<g>
</g>
<g>
</g>
<g>
</g>
<g>
</g>
<g>
</g>
<g>
</g>
<g>
</g>
<g>
</g>
<g>
</g>
<g>
</g>
<g>
</g>
</svg>
