<?xml version="1.0" encoding="iso-8859-1"?>
<!-- Generator: Adobe Illustrator 19.0.0, SVG Export Plug-In . SVG Version: 6.00 Build 0)  -->
<svg version="1.1" id="Capa_1" xmlns="http://www.w3.org/2000/svg" xmlns:xlink="http://www.w3.org/1999/xlink" x="0px" y="0px"
	 viewBox="0 0 512 512" style="enable-background:new 0 0 512 512;" xml:space="preserve">
<circle style="fill:#ECF1F7;" cx="256" cy="269.02" r="177.76"/>
<path style="fill:#DCDEE0;" d="M433.76,269.019c0,98.173-79.586,177.76-177.76,177.76c-39.948,0-76.812-13.179-106.486-35.412
	c22.122,9.884,46.638,15.382,72.436,15.382c98.173,0,177.76-79.586,177.76-177.76c0-58.235-28.001-109.921-71.274-142.348
	C390.507,134.373,433.76,196.644,433.76,269.019z"/>
<circle style="fill:#E84661;" cx="256" cy="286.05" r="53.3"/>
<path style="fill:#CE1D4C;" d="M309.298,286.054c0,29.433-23.865,53.298-53.298,53.298c-17.726,0-33.429-8.653-43.113-21.972
	c6.81,3.175,14.411,4.937,22.413,4.937c29.443,0,53.298-23.865,53.298-53.298c0-11.707-3.776-22.533-10.175-31.326
	C296.66,246.156,309.298,264.623,309.298,286.054z"/>
<path style="fill:#00DDC2;" d="M139.958,77.424c-10.88-0.442-20.991,2.755-29.224,8.468c-5.783,4.013-13.552,2.869-17.941-2.634
	c-9.04-11.335-23.117-18.473-38.847-18.016C28.781,65.974,8.243,86.528,7.531,111.693c-0.477,16.854,7.765,31.808,20.545,40.695
	c5.061,3.52,6.791,10.106,4.439,15.805c-6.276,15.204-4.945,34.347,8.74,52.694c0.252,0.337,0.74,0.826,1.078,1.077
	c39.31,29.313,82.3,1.914,82.3-35.525c0-0.057,0-0.113,0-0.17c-0.026-7.333,5.833-13.192,13.166-13.166c0.057,0,0.113,0,0.17,0
	c27.068,0,48.887-22.47,47.822-49.775C184.824,98.581,164.704,78.428,139.958,77.424z"/>
<path style="fill:#00BCA1;" d="M137.968,173.099h-0.17c-7.331-0.02-13.189,5.839-13.169,13.169v0.17
	c0,37.445-42.983,64.835-82.3,35.522c-0.33-0.25-0.821-0.741-1.072-1.072c-2.263-3.034-4.196-6.099-5.799-9.163
	c35.722,16.885,70.743-8.723,70.743-42.522v-0.17c-0.02-7.331,5.839-13.189,13.169-13.159h0.17c27.07,0,48.881-22.473,47.82-49.783
	c-0.331-8.452-2.894-16.374-7.11-23.174c14.651,7.781,24.856,22.954,25.537,40.409C186.859,150.636,165.037,173.099,137.968,173.099
	z"/>
<path style="fill:#00DDC2;" d="M372.042,77.424c10.88-0.442,20.991,2.755,29.224,8.468c5.783,4.013,13.552,2.869,17.941-2.634
	c9.04-11.335,23.117-18.473,38.846-18.016c25.165,0.731,45.703,21.285,46.415,46.451c0.477,16.854-7.765,31.808-20.544,40.695
	c-5.061,3.52-6.791,10.106-4.439,15.805c2.191,5.308,3.455,11.096,3.59,17.163c0.606,27.289-22.236,49.848-49.515,48.914
	c-25.66-0.879-46.192-21.957-46.192-47.831c0-0.057,0-0.113,0-0.17c0.026-7.333-5.833-13.192-13.166-13.166c-0.057,0-0.113,0-0.17,0
	c-27.068,0-48.887-22.47-47.822-49.775C327.176,98.581,347.297,78.428,372.042,77.424z"/>
<path style="fill:#00BCA1;" d="M504.473,111.69c0.471,16.855-7.771,31.806-20.55,40.699c-5.057,3.515-6.79,10.105-4.437,15.803
	c2.193,5.308,3.455,11.096,3.585,17.165c0.611,27.29-22.232,49.843-49.512,48.912c-12.698-0.441-24.145-5.819-32.477-14.291
	c3.145,0.771,6.419,1.232,9.774,1.342c27.28,0.941,50.123-21.622,49.523-48.911c-0.14-6.069-1.402-11.857-3.595-17.165
	c-2.353-5.698-0.621-12.278,4.446-15.803c12.779-8.883,21.021-23.845,20.54-40.689c-0.36-12.468-5.578-23.815-13.82-32.167
	C488.4,71.601,503.862,89.918,504.473,111.69z"/>
<path d="M256,225.243c-33.53,0-60.809,27.279-60.809,60.809S222.47,346.861,256,346.861s60.809-27.279,60.809-60.809
	C316.809,252.521,289.531,225.243,256,225.243z M256,331.839c-25.247,0-45.787-20.54-45.787-45.788
	c0-25.247,20.54-45.787,45.787-45.787s45.787,20.54,45.787,45.787C301.787,311.299,281.247,331.839,256,331.839z"/>
<path d="M145.749,297.093c4.302,25.789,17.673,49.397,37.65,66.477c20.203,17.272,45.987,26.785,72.601,26.785
	s52.398-9.512,72.601-26.785c19.977-17.079,33.348-40.687,37.65-66.476c0.682-4.092-2.081-7.962-6.173-8.645
	c-4.092-0.679-7.962,2.081-8.644,6.173c-3.721,22.31-15.297,42.742-32.594,57.53c-17.484,14.948-39.801,23.18-62.839,23.18
	s-45.355-8.232-62.839-23.181c-17.297-14.788-28.873-35.219-32.594-57.53c-0.683-4.092-4.558-6.851-8.644-6.173
	C147.83,289.131,145.067,293.001,145.749,297.093z"/>
<path d="M177.93,192.963c-4.148,0-7.511,3.363-7.511,7.511v13.366h-13.366c-4.148,0-7.511,3.363-7.511,7.511
	s3.363,7.511,7.511,7.511h13.366v13.365c0,4.148,3.363,7.511,7.511,7.511s7.511-3.363,7.511-7.511v-13.365h13.365
	c4.148,0,7.511-3.363,7.511-7.511s-3.363-7.511-7.511-7.511h-13.365v-13.366C185.441,196.326,182.078,192.963,177.93,192.963z"/>
<path d="M334.07,192.963c-4.148,0-7.511,3.363-7.511,7.511v13.366h-13.365c-4.148,0-7.511,3.363-7.511,7.511
	s3.363,7.511,7.511,7.511h13.365v13.365c0,4.148,3.363,7.511,7.511,7.511c4.148,0,7.511-3.363,7.511-7.511v-13.365h13.366
	c4.148,0,7.511-3.363,7.511-7.511s-3.363-7.511-7.511-7.511h-13.366v-13.366C341.581,196.326,338.218,192.963,334.07,192.963z"/>
<path d="M488.214,158.555c15.411-10.718,24.295-28.315,23.764-47.075c-0.829-29.286-24.419-52.895-53.705-53.746
	c-17.581-0.509-33.966,7.085-44.937,20.841c-1.917,2.405-5.266,2.897-7.786,1.147c-9.952-6.907-21.651-10.304-33.811-9.803l0,0
	c-19.388,0.787-36.321,11.754-45.582,27.641C304.504,88.668,280.818,83.749,256,83.749c-24.79,0-48.447,4.915-70.078,13.789
	c-2.075-3.569-4.555-6.942-7.451-10.048c-10.44-11.196-25.203-17.617-40.504-17.617c-11.779,0-23.027,3.655-32.529,10.569
	c-1.93,1.403-4.534,1.062-5.929-0.78c-10.798-14.25-27.927-22.446-45.782-21.928C24.442,58.586,0.852,82.194,0.023,111.48
	c-0.539,19.036,8.556,36.779,24.329,47.461c1.815,1.229,2.492,3.443,1.646,5.382c-2.408,5.522-3.888,11.374-4.397,17.393
	c-0.35,4.133,2.717,7.768,6.851,8.117c4.14,0.352,7.768-2.718,8.117-6.851c0.371-4.382,1.446-8.639,3.198-12.654
	c3.724-8.539,0.784-18.558-6.991-23.825c-11.499-7.788-18.129-20.722-17.736-34.598c0.604-21.336,17.79-38.535,39.125-39.156
	c13.015-0.381,25.501,5.597,33.373,15.986c6.277,8.285,18.273,10.013,26.74,3.853c6.916-5.033,15.108-7.694,23.69-7.694
	c11.314,0,21.797,4.56,29.517,12.84c7.713,8.272,11.524,19.079,10.729,30.431c-1.353,19.325-16.901,35.329-36.166,37.226
	c-1.694,0.167-3.405,0.229-5.086,0.189c-5.378-0.133-10.41,1.878-14.192,5.659c-3.783,3.782-5.794,8.824-5.662,14.209l0.008,0.414
	c0.155,10.967-4.121,21.324-12.039,29.163c-7.922,7.843-18.304,12.008-29.303,11.751c-8.381-0.203-16.359-2.952-23.072-7.95
	c-3.327-2.477-8.032-1.788-10.51,1.539c-2.477,3.327-1.788,8.032,1.539,10.51c8.509,6.335,18.497,10.032,29.032,10.785
	c-1.33,8.931-2.033,18.064-2.033,27.36c0,102.158,83.112,185.27,185.27,185.27c29.545,0,58.94-7.127,85.008-20.612
	c25.219-13.045,47.463-32.059,64.328-54.985c2.458-3.342,1.742-8.043-1.6-10.501s-8.043-1.743-10.501,1.6
	c-15.504,21.076-35.95,38.554-59.129,50.543c-24.286,12.563-50.565,18.932-78.107,18.932c-93.875,0-170.249-76.373-170.249-170.249
	c0-9.676,0.827-19.161,2.387-28.4c10.28-2.166,19.769-7.258,27.507-14.919c10.847-10.739,16.704-24.962,16.491-40.054l-0.011-0.579
	c-0.03-1.22,0.42-2.359,1.266-3.205c0.845-0.845,1.99-1.306,3.201-1.265c2.293,0.057,4.622-0.03,6.926-0.257
	c26.464-2.605,47.822-24.585,49.68-51.126c0.427-6.095-0.131-12.073-1.587-17.777c19.875-8.152,41.611-12.666,64.388-12.666
	c22.791,0,44.543,4.516,64.428,12.679c-0.968,3.731-1.567,7.605-1.722,11.586c-0.594,15.219,4.881,29.633,15.415,40.586
	c10.538,10.958,24.713,16.992,39.912,16.992h0.197c1.574-0.002,2.953,0.571,4.005,1.624c1.052,1.052,1.629,2.475,1.624,3.967
	l-0.001,0.235c0,26.773,18.699,48.995,44.018,54.202c1.555,9.232,2.373,18.711,2.373,28.378c0,22.82-4.438,44.967-13.189,65.823
	c-1.605,3.825,0.195,8.227,4.02,9.832c3.828,1.605,8.227-0.195,9.832-4.02c9.528-22.707,14.359-46.809,14.359-71.635
	c0-9.304-0.703-18.445-2.037-27.384c12.972-0.985,25.413-6.601,34.825-15.901c10.837-10.708,16.861-25.486,16.526-40.545
	c-0.152-6.868-1.55-13.551-4.156-19.862C485.384,162.797,486.118,160.012,488.214,158.555z M479.637,146.221
	c-7.935,5.518-10.852,15.732-7.093,24.838c1.895,4.591,2.912,9.457,3.023,14.464c0.247,11.109-4.038,21.595-12.066,29.526
	c-8.03,7.934-18.576,12.099-29.683,11.714c-21.835-0.748-38.938-18.46-38.938-40.324v-0.144c0.019-5.563-2.12-10.776-6.024-14.68
	c-3.886-3.886-9.069-6.023-14.577-6.023c-0.025,0-0.05,0-0.075,0h-0.17c-11.076,0-21.405-4.398-29.085-12.383
	c-7.675-7.98-11.664-18.488-11.232-29.587c0.813-20.851,17.782-37.846,38.631-38.693l0,0c8.881-0.357,17.394,2.108,24.638,7.135
	c8.955,6.215,21.296,4.403,28.096-4.122c7.997-10.027,19.925-15.572,32.756-15.192c21.335,0.62,38.522,17.819,39.126,39.156
	C497.349,125.58,490.872,138.408,479.637,146.221z"/>
<g>
</g>
<g>
</g>
<g>
</g>
<g>
</g>
<g>
</g>
<g>
</g>
<g>
</g>
<g>
</g>
<g>
</g>
<g>
</g>
<g>
</g>
<g>
</g>
<g>
</g>
<g>
</g>
<g>
</g>
</svg>
