<?xml version="1.0" encoding="iso-8859-1"?>
<!-- Generator: Adobe Illustrator 19.0.0, SVG Export Plug-In . SVG Version: 6.00 Build 0)  -->
<svg version="1.1" id="Capa_1" xmlns="http://www.w3.org/2000/svg" xmlns:xlink="http://www.w3.org/1999/xlink" x="0px" y="0px"
	 viewBox="0 0 512.002 512.002" style="enable-background:new 0 0 512.002 512.002;" xml:space="preserve">
<path style="fill:#00DDC2;" d="M385.269,89.711l-74.893,148.817c-3.879,7.708-0.775,17.101,6.933,20.98l0,0
	c7.708,3.879,17.101,0.775,20.98-6.933L450.223,30.154c3.879-7.708,0.775-17.101-6.933-20.98l0,0
	c-7.708-3.879-17.101-0.775-20.98,6.933L405.8,48.915"/>
<circle style="fill:#F4A6C2;" cx="250.106" cy="137.051" r="77.783"/>
<path style="fill:#E57CA7;" d="M327.896,137.052c0,42.958-34.828,77.786-77.786,77.786c-4.024,0-7.988-0.31-11.844-0.901
	c37.341-5.697,65.933-37.952,65.933-76.885c0-38.934-28.591-71.189-65.933-76.885c3.854-0.591,7.818-0.901,11.844-0.901
	C293.067,59.266,327.896,94.094,327.896,137.052z"/>
<circle style="fill:#A06047;" cx="341.393" cy="223.146" r="77.783"/>
<path style="fill:#824730;" d="M419.177,223.147c0,42.958-34.828,77.786-77.786,77.786c-4.024,0-7.988-0.31-11.844-0.901
	c37.341-5.697,65.933-37.952,65.933-76.885c0-38.934-28.591-71.189-65.933-76.885c3.854-0.591,7.818-0.901,11.844-0.901
	C384.349,145.361,419.177,180.19,419.177,223.147z"/>
<circle style="fill:#FFE269;" cx="180.815" cy="206.161" r="94.768"/>
<path style="fill:#F7D443;" d="M275.588,206.158c0,52.348-42.427,94.775-94.765,94.775c-4.014,0-7.968-0.25-11.844-0.731
	c46.742-5.837,82.922-45.711,82.922-94.044c0-48.323-36.18-88.197-82.922-94.034c3.874-0.48,7.828-0.731,11.844-0.731
	C233.161,111.393,275.588,153.821,275.588,206.158z"/>
<path style="fill:#00DDC2;" d="M433.891,255.88c3.5,0,6.326,2.897,6.211,6.395c-3.373,102.027-87.144,183.702-189.991,183.702
	S63.49,364.302,60.118,262.275c-0.116-3.498,2.71-6.395,6.211-6.395L433.891,255.88L433.891,255.88z"/>
<path style="fill:#00BCA1;" d="M440.1,262.271c-3.374,102.033-87.147,183.704-189.99,183.704c-5.396,0-10.742-0.22-16.018-0.67
	c97.488-8.129,174.083-89.83,174.083-189.42h25.719C437.387,255.883,440.22,258.777,440.1,262.271z"/>
<path style="fill:#E84661;" d="M77.336,335.279c2.718-0.645,5.783-1.017,9.282-1.017c27.261,0,27.261,22.447,54.51,22.447
	c27.261,0,27.261-22.447,54.534-22.447c27.249,0,27.249,22.447,54.51,22.447s27.261-22.447,54.51-22.447
	c27.261,0,27.261,22.447,54.522,22.447c27.249,0,27.249-22.447,54.51-22.447c3.462,0,6.477,0.36,9.17,0.992
	c-30.067,65.354-96.117,110.72-172.775,110.72S107.401,400.621,77.336,335.279z"/>
<path style="fill:#CE1D4C;" d="M422.881,335.252c-0.44,0.961-0.891,1.922-1.341,2.873c-0.02,0.06-0.05,0.12-0.09,0.18
	c-0.49,1.011-0.991,2.013-1.492,3.015c-7.137,14.274-15.569,26.74-25.978,38.802c-8.038,9.314-17.003,17.894-26.73,25.479
	c-6.146,4.792-12.557,9.245-19.222,13.245c-3.884,2.331-7.804,4.517-11.85,6.579c-3.277,1.669-6.603,3.244-9.972,4.719
	c-6.729,2.947-13.631,5.505-20.665,7.623c-8.581,2.584-16.863,4.506-25.602,5.882c-3.666,0.577-7.349,1.043-11.042,1.4
	c-7.324,0.707-14.699,0.993-22.055,0.716c-4.103-0.154-8.464-0.821-12.558-0.475c22.341-1.889,44.298-7.751,64.589-17.292
	c18.325-8.617,35.238-20.186,49.936-34.114c7.32-6.937,14.09-14.453,20.226-22.457c3.075-4.011,5.991-8.145,8.737-12.388
	c2.177-3.363,4.445-10.09,7.457-12.553c7.248-5.927,14.035-12.224,28.481-12.224C417.175,334.26,420.188,334.621,422.881,335.252z"
	/>
<path style="fill:#00DDC2;" d="M310.382,504.492H189.838c-2.765,0-5.005-2.241-5.005-5.005v-32.791
	c0-12.13,9.833-21.964,21.964-21.964h86.628c12.13,0,21.964,9.833,21.964,21.964v32.791
	C315.387,502.251,313.145,504.492,310.382,504.492z"/>
<path style="fill:#00BCA1;" d="M315.382,466.697v32.787c0,2.765-2.241,5.005-5.005,5.005h-19.021v-37.792
	c0-12.134-9.831-21.965-21.955-21.965h24.026C305.551,444.733,315.382,454.563,315.382,466.697z"/>
<path d="M446.665,2.467c-11.395-5.735-25.328-1.128-31.062,10.265L399.092,45.54c-1.864,3.703-0.372,8.218,3.332,10.081
	c3.704,1.867,8.218,0.373,10.082-3.332l16.51-32.807c2.013-3.998,6.903-5.612,10.898-3.602c3.997,2.012,5.613,6.901,3.602,10.899
	l-61.18,121.569c-4.725-2.597-9.724-4.752-14.937-6.426l24.577-48.836c1.864-3.703,0.372-8.218-3.332-10.082
	c-3.703-1.865-8.217-0.373-10.082,3.332l-26.287,52.234c-3.567-0.457-7.194-0.718-10.884-0.718c-2.022,0-4.025,0.078-6.012,0.217
	c0.004-0.34,0.026-0.677,0.026-1.018c0-47.032-38.263-85.294-85.295-85.294c-35.436,0-65.86,21.736-78.723,52.565
	c-51.991,4.777-92.847,48.623-92.847,101.84c0,15.044,3.278,29.334,9.139,42.21h-21.35c-3.698,0-7.295,1.525-9.868,4.184
	c-2.604,2.692-3.97,6.231-3.847,9.968c1.657,50.132,22.107,97.33,57.581,132.897c2.929,2.938,7.683,2.943,10.619,0.015
	c2.936-2.928,2.942-7.682,0.014-10.618c-12.808-12.842-23.486-27.328-31.846-42.971c9.34,0.568,14.157,4.52,20.126,9.435
	c6.996,5.762,15.705,12.934,32.022,12.934c16.322,0,25.033-7.171,32.033-12.933c6.457-5.316,11.556-9.514,22.502-9.514
	c10.928,0,16.024,4.196,22.474,9.509c6.999,5.764,15.71,12.938,32.036,12.938s25.036-7.174,32.035-12.938
	c6.451-5.313,11.546-9.509,22.475-9.509c10.937,0,16.035,4.197,22.489,9.512c6.999,5.763,15.711,12.935,32.035,12.935
	c16.317,0,25.024-7.172,32.021-12.934c5.951-4.9,10.759-8.843,20.045-9.429c-8.837,16.527-20.277,31.755-34.087,45.142
	c-34.242,33.193-79.372,51.473-127.074,51.473c-32.788,0-64.939-8.787-92.979-25.412c-3.567-2.116-8.172-0.937-10.288,2.629
	c-2.116,3.567-0.938,8.173,2.629,10.288c12.35,7.322,25.443,13.214,39.01,17.658c-6.791,5.404-11.156,13.732-11.156,23.065v32.791
	c0,6.9,5.614,12.514,12.514,12.514h120.543c6.9,0,12.514-5.614,12.514-12.514v-32.791c0-9.307-4.341-17.611-11.1-23.014
	c28.137-9.219,54.03-24.763,75.84-45.905c36.975-35.842,58.272-83.875,59.971-135.253c0.124-3.736-1.242-7.275-3.846-9.967
	c-2.573-2.66-6.17-4.185-9.869-4.185h-11.058c2.483-7.977,3.853-16.44,3.853-25.224c0-26.782-12.418-50.707-31.786-66.357
	L456.93,33.531C462.664,22.136,458.059,8.201,446.665,2.467z M307.879,496.984H192.342v-30.288c0-7.97,6.485-14.455,14.455-14.455
	h86.628c7.97,0,14.455,6.485,14.455,14.455L307.879,496.984L307.879,496.984z M250.11,66.774c38.752,0,70.279,31.526,70.279,70.278
	c0,1.156-0.038,2.304-0.095,3.447c-17.61,4.502-33.038,14.506-44.356,28.058c-14.169-35.715-47.899-61.614-87.898-64.417
	C199.862,81.933,223.245,66.774,250.11,66.774z M180.82,118.898c48.117,0,87.263,39.146,87.263,87.263
	c0,15.304-3.971,29.693-10.921,42.21h-152.68c-6.951-12.517-10.924-26.905-10.924-42.21
	C93.557,158.045,132.703,118.898,180.82,118.898z M432.547,263.388c-0.895,22.165-5.747,43.636-14.174,63.582
	c-1.506-0.134-3.048-0.217-4.659-0.217c-16.326,0-25.036,7.174-32.035,12.938c-6.451,5.313-11.546,9.509-22.475,9.509
	c-10.937,0-16.035-4.197-22.489-9.512c-6.999-5.763-15.711-12.935-32.034-12.935c-16.317,0-25.024,7.172-32.02,12.934
	c-6.453,5.315-11.55,9.513-22.489,9.513c-10.938,0-16.036-4.198-22.489-9.513c-6.996-5.762-15.705-12.934-32.021-12.934
	c-16.331,0-25.044,7.173-32.047,12.937c-6.455,5.313-11.552,9.51-22.489,9.51c-10.929,0-16.024-4.196-22.475-9.509
	c-6.998-5.764-15.709-12.938-32.035-12.938c-1.617,0-3.191,0.088-4.734,0.228c-8.446-19.975-13.317-41.462-14.211-63.593
	L432.547,263.388L432.547,263.388z M411.669,223.147c0,8.888-1.665,17.391-4.69,25.224h-133.01
	c5.859-12.876,9.133-27.166,9.133-42.21c0-6.604-0.637-13.062-1.839-19.321c12.326-20.341,34.658-33.972,60.13-33.972
	C380.142,152.869,411.669,184.395,411.669,223.147z"/>
<g>
</g>
<g>
</g>
<g>
</g>
<g>
</g>
<g>
</g>
<g>
</g>
<g>
</g>
<g>
</g>
<g>
</g>
<g>
</g>
<g>
</g>
<g>
</g>
<g>
</g>
<g>
</g>
<g>
</g>
</svg>
