<?xml version="1.0" encoding="iso-8859-1"?>
<!-- Generator: Adobe Illustrator 19.0.0, SVG Export Plug-In . SVG Version: 6.00 Build 0)  -->
<svg version="1.1" id="Capa_1" xmlns="http://www.w3.org/2000/svg" xmlns:xlink="http://www.w3.org/1999/xlink" x="0px" y="0px"
	 viewBox="0 0 511.998 511.998" style="enable-background:new 0 0 511.998 511.998;" xml:space="preserve">
<path style="fill:#5E6C70;" d="M393.999,504.495H110.991c-13.862,0-25.1-11.237-25.1-25.1v-277.95h333.208v277.951
	C419.098,493.258,407.861,504.495,393.999,504.495z"/>
<path style="fill:#4F5D60;" d="M419.094,201.449v277.946c0,13.859-11.237,25.096-25.096,25.096H364.98
	c13.859,0,25.096-11.237,25.096-25.096V201.449L419.094,201.449L419.094,201.449z"/>
<rect x="85.893" y="313.859" style="fill:#E84661;" width="333.212" height="75.668"/>
<rect x="390.056" y="313.859" style="fill:#CE1D4C;" width="29.038" height="75.668"/>
<ellipse style="fill:#5E6C70;" cx="256.001" cy="219.819" rx="242.374" ry="50.452"/>
<path style="fill:#4F5D60;" d="M498.375,219.821c0,27.868-108.519,50.452-242.374,50.452c-47.86,0-92.479-2.882-130.053-7.865
	c27.948,2.341,58.487,3.632,90.467,3.632c133.855,0,242.364-22.584,242.364-50.452c0-17.911-44.798-33.631-112.341-42.587
	C435.505,180.456,498.375,198.608,498.375,219.821z"/>
<path style="fill:#ECF1F7;" d="M297.839,123.732c5.411-12.353,10.769-26.013,11.564-28.092
	c5.447-14.248,10.454-29.247,12.331-44.516c0.971-7.899,1.121-15.951-0.42-23.33c-2.26-10.828-8.383-17.852-15.75-19.758
	c-6.66-1.723-14.339,0.737-21.101,8.353c-8.32,9.372-13.248,22.795-16.551,35.634c-4.767,18.533-6.803,37.924-7.41,56.944
	c-2.006-0.172-4.031-0.279-6.081-0.279c-3.804,0-7.536,0.312-11.176,0.895c-0.581-19.217-2.613-38.827-7.431-57.56
	c-3.302-12.838-8.23-26.262-16.551-35.634c-6.762-7.616-14.44-10.076-21.101-8.353c-7.367,1.906-13.49,8.93-15.75,19.758
	c-1.541,7.379-1.391,15.431-0.42,23.33c1.877,15.27,6.883,30.268,12.331,44.516c0.863,2.256,7.103,18.158,12.95,31.222
	c-14.191,12.855-23.107,31.427-23.107,52.082c0,38.802,31.455,70.256,70.256,70.256s70.256-31.455,70.256-70.256
	C324.678,156.537,314.177,136.596,297.839,123.732z"/>
<path style="fill:#DCDEE0;" d="M324.679,178.948c0,38.8-31.452,70.252-70.261,70.252c-3.917,0-7.755-0.318-11.495-0.947
	c33.344-5.473,58.765-34.423,58.765-69.305c0-18.213-6.934-34.79-18.295-47.267c-4.957-5.444-6.184-13.324-3.37-20.129
	c3.276-7.922,5.859-14.522,6.386-15.915c5.455-14.245,10.461-29.242,12.335-44.512c0.973-7.905,1.123-15.951-0.415-23.335
	c-1.494-7.136-4.66-12.618-8.763-16.075c5.358-3.899,10.964-4.978,15.995-3.678c7.366,1.901,13.494,8.931,15.757,19.754
	c1.539,7.384,1.388,15.43,0.415,23.335c-1.874,15.271-6.879,30.267-12.335,44.512c-0.786,2.078-6.145,15.739-11.556,28.092
	C314.175,136.594,324.679,156.534,324.679,178.948z"/>
<path d="M482.638,193.447c-12.773-6.286-30.85-11.889-53.726-16.651c-28.002-5.829-61.558-10.068-98.146-12.511
	c-3.132-16.3-11.411-31.292-23.836-42.673c4.633-10.877,8.813-21.535,9.485-23.293c0.073-0.19,0.137-0.382,0.194-0.577
	l11.698-40.076c0.086-0.297,0.155-0.599,0.204-0.905c0.255-1.581,0.482-3.169,0.672-4.721c1.212-9.859,1.042-18.292-0.522-25.779
	c-2.765-13.239-10.696-22.768-21.217-25.489c-9.895-2.561-20.318,1.317-28.592,10.636c-7.806,8.792-13.761,21.466-18.208,38.747
	c-3.931,15.285-6.334,32.007-7.327,51.037c-0.964,0.014-1.932,0.046-2.9,0.097c-0.989-19.06-3.394-35.818-7.335-51.135
	c-4.445-17.28-10.401-29.954-18.207-38.746c-8.275-9.32-18.7-13.195-28.592-10.637c-10.522,2.722-18.453,12.251-21.217,25.489
	c-1.564,7.489-1.734,15.921-0.522,25.779c2.057,16.732,7.609,32.785,12.77,46.28c0.816,2.134,5.821,14.879,10.991,26.797
	c-10.586,11.021-17.545,24.633-20.3,39.39c-35.333,2.473-67.743,6.632-94.919,12.289c-22.877,4.762-40.953,10.365-53.726,16.651
	c-15.42,7.589-23.238,16.461-23.238,26.372c0,9.91,7.818,18.783,23.238,26.372c11.885,5.85,28.366,11.105,49.027,15.644v211.563
	c0,21.284,17.316,38.6,38.601,38.6h271.016c21.285,0,38.6-17.316,38.6-38.6c0-4.145-3.36-7.505-7.505-7.505
	c-4.145,0-7.505,3.36-7.505,7.505c0,13.008-10.583,23.591-23.591,23.591H116.987c-13.008,0-23.591-10.583-23.591-23.591v-76.361
	h318.198v29.741c0,4.145,3.36,7.505,7.505,7.505c4.145,0,7.505-3.36,7.505-7.505V263.312c0.77-0.156,1.546-0.31,2.307-0.469
	c22.876-4.762,40.953-10.365,53.727-16.652c15.419-7.589,23.238-16.461,23.238-26.372
	C505.875,209.909,498.056,201.036,482.638,193.447z M210.351,134.278c3.49-3.444,4.511-8.775,2.541-13.261
	c-5.335-12.159-10.719-25.861-11.557-28.057c-4.837-12.65-10.032-27.622-11.893-42.752c-0.995-8.085-0.888-15.11,0.318-20.88
	c1.571-7.523,5.415-12.766,10.284-14.026c0.742-0.192,1.501-0.287,2.269-0.287c3.694,0,7.643,2.194,11.34,6.358
	c6.186,6.966,11.057,17.604,14.894,32.52c3.895,15.143,6.194,31.902,7.026,51.237c0.139,3.238,1.621,6.318,4.065,8.449
	c2.452,2.138,5.715,3.192,8.958,2.887c2.43-0.227,4.886-0.317,7.299-0.252c6.462,0.183,11.992-4.927,12.275-11.374
	c0.845-19.221,3.137-35.887,7.011-50.946c3.837-14.916,8.71-25.554,14.894-32.52c4.466-5.029,9.296-7.189,13.61-6.07
	c4.868,1.259,8.713,6.502,10.283,14.026c1.206,5.77,1.313,12.795,0.318,20.88c-0.149,1.217-0.324,2.461-0.52,3.704l-11.479,39.325
	c-0.97,2.512-5.355,13.649-10.024,24.497c-2.064,4.793-0.789,10.315,3.173,13.741c13.815,11.946,21.738,29.247,21.738,47.468
	c0,17.041-6.714,32.984-18.908,44.895c-12.189,11.906-28.311,18.24-45.36,17.839c-33.928-0.798-61.397-29.078-61.234-63.041
	C191.753,161.837,198.386,146.084,210.351,134.278z M411.594,306.357h-67.567c-4.145,0-7.505,3.36-7.505,7.505
	c0,4.145,3.36,7.505,7.505,7.505h67.567v60.663H93.396v-60.663h203.601c4.145,0,7.505-3.36,7.505-7.505
	c0-4.145-3.36-7.505-7.505-7.505H93.396v-41.49c44.892,8.345,102.096,12.911,162.603,12.911c57.4,0,111.83-4.108,155.596-11.654
	L411.594,306.357L411.594,306.357z M425.852,248.148c-45.29,9.428-105.612,14.62-169.854,14.62s-124.563-5.192-169.854-14.62
	c-51.427-10.705-65.014-23.211-65.014-28.329c0-5.117,13.588-17.623,65.014-28.329c25.941-5.399,56.822-9.406,90.54-11.847
	c0.143,15.552,4.958,30.103,13.107,42.282c-2.322-0.358-4.583-0.736-6.765-1.138c-20.811-3.824-28.453-8.353-30.004-10.099
	c-0.412-3.755-3.594-6.677-7.46-6.677c-4.145,0-7.505,3.36-7.505,7.505c0,10.44,11.827,17.763,37.222,23.05
	c8.886,1.85,19.028,3.334,29.997,4.433c12.966,10.667,29.39,17.264,47.277,17.684c0.632,0.015,1.26,0.022,1.889,0.022
	c18.504-0.001,36.004-6.43,50.028-18.269c8.957-1.027,17.291-2.319,24.739-3.87c25.394-5.286,37.222-12.61,37.222-23.05
	c0-4.145-3.36-7.505-7.505-7.505c-3.865,0-7.047,2.922-7.46,6.677c-1.551,1.747-9.193,6.275-30.004,10.099
	c-0.549,0.101-1.119,0.196-1.677,0.294c7.972-12.309,12.298-26.628,12.387-41.663c34.942,2.417,66.934,6.504,93.68,12.072
	c51.427,10.705,65.014,23.212,65.014,28.329C490.866,224.937,477.278,237.443,425.852,248.148z"/>
<circle cx="228.493" cy="177.032" r="7.666"/>
<circle cx="277.434" cy="177.032" r="7.666"/>
<g>
</g>
<g>
</g>
<g>
</g>
<g>
</g>
<g>
</g>
<g>
</g>
<g>
</g>
<g>
</g>
<g>
</g>
<g>
</g>
<g>
</g>
<g>
</g>
<g>
</g>
<g>
</g>
<g>
</g>
</svg>
